<svg width="1117" height="90" viewBox="0 0 1117 90" fill="none" xmlns="http://www.w3.org/2000/svg">
<path d="M1079 10V1" stroke="white" stroke-width="1.5" stroke-linecap="round"/>
<path d="M1073 16H1083" stroke="white" stroke-width="1.5" stroke-linecap="round"/>
<path d="M1104 87.3778V60H1085V88" stroke="white" stroke-width="1.5" stroke-linecap="round"/>
<path d="M1046 77.4V45H1075V87" stroke="white" stroke-width="1.5" stroke-linecap="round"/>
<path d="M1050 45V40H1072V45" stroke="white" stroke-width="1.5" stroke-linecap="round"/>
<path d="M1065 18V39H1072V44.5H1075.5V89H1085V60H1093V18H1065Z" fill="#467EF7" stroke="white" stroke-width="1.5" stroke-linecap="round"/>
<path d="M1071 18V13H1086V18" stroke="white" stroke-width="1.5" stroke-linecap="round"/>
<path d="M1073 12V10H1084V12" stroke="white" stroke-width="1.5" stroke-linecap="round"/>
<path d="M66 52.6667V28H105V88" stroke="white" stroke-width="1.5" stroke-linecap="round"/>
<path d="M80 89V80H90V89" stroke="white" stroke-width="1.5" stroke-linecap="round"/>
<path d="M85 80V89" stroke="white" stroke-width="1.5" stroke-linecap="round"/>
<path d="M11 33V29H29V33" stroke="white" stroke-width="1.5" stroke-linecap="round"/>
<path d="M20 28V22" stroke="white" stroke-width="1.5" stroke-linecap="round"/>
<path d="M32 80.622V33H8V88" stroke="white" stroke-width="1.5" stroke-linecap="round"/>
<path d="M44 83.9615V53H66V88" stroke="white" stroke-width="1.5" stroke-linecap="round"/>
<path d="M48 62V57H53V62H48Z" fill="#F79B46" stroke="white" stroke-width="1.5" stroke-linecap="round"/>
<path d="M57 62V57H62V62H57Z" fill="#F79B46" stroke="white" stroke-width="1.5" stroke-linecap="round"/>
<path d="M48 70V65H53V70H48Z" fill="#F79B46" stroke="white" stroke-width="1.5" stroke-linecap="round"/>
<path d="M57 70V65H62V70H57Z" fill="#F79B46" stroke="white" stroke-width="1.5" stroke-linecap="round"/>
<path d="M11 37H29" stroke="white" stroke-width="1.5" stroke-linecap="round"/>
<path d="M11 41H29" stroke="white" stroke-width="1.5" stroke-linecap="round"/>
<path d="M11 45H29" stroke="white" stroke-width="1.5" stroke-linecap="round"/>
<path d="M11 49H29" stroke="white" stroke-width="1.5" stroke-linecap="round"/>
<path d="M11 69H29" stroke="white" stroke-width="1.5" stroke-linecap="round"/>
<path d="M11 73H29" stroke="white" stroke-width="1.5" stroke-linecap="round"/>
<path d="M11 77H29" stroke="white" stroke-width="1.5" stroke-linecap="round"/>
<path d="M11 81H29" stroke="white" stroke-width="1.5" stroke-linecap="round"/>
<path d="M11 53H29" stroke="white" stroke-width="1.5" stroke-linecap="round"/>
<path d="M11 57H29" stroke="white" stroke-width="1.5" stroke-linecap="round"/>
<path d="M11 61H29" stroke="white" stroke-width="1.5" stroke-linecap="round"/>
<path d="M11 65H29" stroke="white" stroke-width="1.5" stroke-linecap="round"/>
<path d="M1 88.8781H1116" stroke="white" stroke-width="2" stroke-linecap="round"/>
<path d="M1050 88.8781H1081" stroke="white" stroke-width="1.72935" stroke-linecap="round"/>
<path d="M997.645 88.8228H1024.45" stroke="white" stroke-width="1.72935" stroke-linecap="round"/>
<path d="M23 88C23 84.9909 26.3937 84.3891 28.0906 84.9909C31.4843 79.5745 39.9686 80.1763 42.5139 83.7872C47.2651 84.2687 47.3217 86.7964 46.7561 88" stroke="white" stroke-width="1.5" stroke-linecap="round"/>
<path d="M1027 87C1027.86 79.6845 1033.9 79.0748 1035.63 79.0748C1039.08 73.5881 1045.99 76.6363 1045.99 79.0748C1050.3 80.9037 1049.44 82.7326 1049.44 83.9518C1054.27 83.9518 1054.33 85.9839 1053.75 87" stroke="white" stroke-width="1.5" stroke-linecap="round"/>
</svg>
