<svg width="1117" height="57" viewBox="0 0 1117 57" fill="none" xmlns="http://www.w3.org/2000/svg">
<path d="M1 55H1116" stroke="black" stroke-width="2" stroke-linecap="round"/>
<path d="M1074.6 24.6811V54.08" stroke="#638879" stroke-width="1.72935" stroke-linecap="round"/>
<path d="M1080.65 29.0045L1075.47 33.3278" stroke="black" stroke-width="1.72935" stroke-linecap="round"/>
<path d="M1052.98 50.6213C1060.59 49.9295 1064.22 46.8743 1065.09 45.4332" stroke="black" stroke-width="1.72935" stroke-linecap="round"/>
<path d="M1056.44 43.7039V54.9447" stroke="black" stroke-width="1.72935" stroke-linecap="round"/>
<path d="M1050 55H1081" stroke="black" stroke-width="1.72935" stroke-linecap="round"/>
<path d="M1047.8 23.8164C1048.08 15.7461 1049.7 0.643182 1053.85 4.79361C1058 8.94404 1061.92 23.24 1063.36 29.8691" stroke="black" stroke-width="1.72935" stroke-linecap="round"/>
<path d="M1063.36 29.8691C1063.28 30.1622 1063.2 30.4504 1063.12 30.7338M1063.12 30.7338C1060.67 39.6462 1059.38 43.8105 1070.28 47.1626C1081.52 50.6213 1085.84 42.8392 1087.57 40.2452C1089.3 37.6512 1080.65 -2.12377 1073.74 1.33492C1068.2 4.10188 1064.93 21.5106 1063.12 30.7338Z" stroke="black" stroke-width="1.72935" stroke-linecap="round"/>
<path d="M27.1613 46.2979H15.377C13.6845 46.2979 0.396953 33.0464 11.1795 23.5654C11.6237 23.1748 11.8776 22.5946 11.8437 22.004C11.3731 13.7993 15.568 7.2285 20.565 3.06426C25.6668 -1.18719 32.4408 6.26742 32.6648 23.7836C32.6719 24.3421 32.9484 24.8648 33.3643 25.2375C38.655 29.9784 38.2832 41.9186 27.7851 46.1783C27.5884 46.2581 27.3736 46.2979 27.1613 46.2979Z" stroke="black" stroke-width="1.72935"/>
<path d="M22.2944 19.493V54.9446" stroke="black" stroke-width="1.72935" stroke-linecap="round"/>
<path d="M14.5123 35.0572L22.2944 41.1099L29.2118 35.0572" stroke="black" stroke-width="1.72935" stroke-linecap="round"/>
<path d="M74.508 39.3615C61.9841 21.7565 32.3614 37.2264 45.4497 54.701C45.7626 55.1187 46.2726 55.368 46.7944 55.368H129.357C130.151 55.368 130.855 54.8294 130.953 54.042C131.527 49.4622 129.649 42.6287 118.458 43.1455C117.563 43.1868 116.756 42.5784 116.491 41.7227C113.591 32.3579 101.837 31.5869 87.676 39.8039C84.8107 38.5942 81.1753 38.3468 76.7954 40.0541C75.9721 40.3751 75.0202 40.0815 74.508 39.3615Z" fill="#DCE3D8"/>
<path d="M95.2557 51.0446C96.3942 49.3369 93.7854 42.3831 87.676 39.8039M87.676 39.8039C84.8107 38.5942 81.1753 38.3468 76.7954 40.0541C75.9721 40.3751 75.0202 40.0815 74.508 39.3615C61.9841 21.7565 32.3614 37.2264 45.4497 54.701C45.7626 55.1187 46.2726 55.3679 46.7944 55.3679H129.357C130.151 55.3679 130.855 54.8294 130.953 54.042C131.527 49.4622 129.649 42.6287 118.458 43.1455C117.563 43.1868 116.756 42.5784 116.491 41.7227C113.591 32.3579 101.837 31.5869 87.676 39.8039Z" stroke="black" stroke-width="1.72935" stroke-linecap="round"/>
<path d="M952.238 54.9446H894.149C893.097 54.9446 892.304 53.9977 892.794 53.0666C893.724 51.3026 895.724 49.3435 899.451 48.9593C900.241 48.8779 900.925 48.3468 901.19 47.5986C903.207 41.887 908.524 39.1028 915.94 42.243C916.7 42.5645 917.588 42.3585 918.163 41.7685C923.998 35.7894 933.986 37.7275 938.021 44.6105C938.533 45.4833 939.629 45.9109 940.608 45.6565C944.493 44.647 951.058 45.1696 953.805 52.8552C954.179 53.9025 953.35 54.9446 952.238 54.9446Z" fill="#DBE4D8" stroke="black" stroke-width="1.72935" stroke-linecap="round"/>
<path d="M997.645 54.9446C988.112 46.0925 995.202 39.9216 999.069 38.5433C999.702 38.3173 1001.37 37.0423 1001.53 36.3891C1005.01 22.3358 1018.48 25.0747 1020.13 33.3278" stroke="black" stroke-width="1.72935" stroke-linecap="round"/>
<path d="M997.645 54.9446H1024.45" stroke="black" stroke-width="1.72935" stroke-linecap="round"/>
<path d="M1049.43 54.9447H1025.11C1024.68 54.9447 1024.27 54.7935 1023.97 54.4923C1021.74 52.2276 1019.1 47.5985 1022.07 42.9689C1022.71 41.9757 1022.55 40.416 1021.94 39.408C1019.55 35.4911 1018.88 26.4818 1028.14 21.8893C1028.96 21.4824 1029.4 20.5109 1029.56 19.6088C1030.54 13.9939 1042.7 5.29339 1046.78 23.9594C1046.88 24.4074 1047.14 24.8248 1047.54 25.055C1050.19 26.5934 1054.31 28.4156 1051.42 42.8921C1051.32 43.3991 1051.46 43.9302 1051.72 44.376C1053.52 47.4461 1052.14 51.6874 1050.87 54.1142C1050.59 54.6418 1050.03 54.9447 1049.43 54.9447Z" fill="#DDE4D8" stroke="black" stroke-width="1.72935" stroke-linecap="round"/>
<path d="M1035.69 40.2452V54.9447" stroke="black" stroke-width="1.72935" stroke-linecap="round"/>
<path d="M1031.37 44.5686L1034.69 47.8895C1035.27 48.4724 1036.18 48.5628 1036.87 48.1055L1043.47 43.7039" stroke="black" stroke-width="1.72935" stroke-linecap="round"/>
</svg>
