<svg width="48" height="48" viewBox="0 0 48 48" fill="none" xmlns="http://www.w3.org/2000/svg">
<rect width="47.9191" height="47.9191" rx="8.84058" fill="white"/>
<g clip-path="url(#clip0_50_194)">
<path d="M32.0471 6.18842H16.5761C14.7458 6.18842 13.254 7.69408 13.323 9.51745C13.3368 9.8835 13.3507 10.2496 13.3714 10.6087H6.0779C5.15931 10.6087 4.42029 11.3477 4.42029 12.2663C4.42029 18.6619 6.73403 23.1098 9.84205 26.1281C12.9017 29.1049 16.6313 30.6036 19.3802 31.3633C20.9964 31.8123 22.1014 33.1591 22.1014 34.5128C22.1014 35.9563 20.9273 37.1304 19.4838 37.1304H17.6812C16.4587 37.1304 15.471 38.1181 15.471 39.3406C15.471 40.5631 16.4587 41.5507 17.6812 41.5507H30.942C32.1645 41.5507 33.1522 40.5631 33.1522 39.3406C33.1522 38.1181 32.1645 37.1304 30.942 37.1304H29.1394C27.6959 37.1304 26.5217 35.9563 26.5217 34.5128C26.5217 33.1591 27.6199 31.8054 29.243 31.3633C31.9988 30.6036 35.7284 29.1049 38.788 26.1281C41.8892 23.1098 44.2029 18.6619 44.2029 12.2663C44.2029 11.3477 43.4639 10.6087 42.5453 10.6087H35.2518C35.2725 10.2496 35.2863 9.89041 35.3002 9.51745C35.3692 7.69408 33.8774 6.18842 32.0471 6.18842ZM7.79767 13.9239H13.6269C14.2554 20.1469 15.6437 24.3047 17.2115 27.0881C15.4917 26.3284 13.7029 25.2578 12.1558 23.7522C9.94565 21.6042 8.14991 18.5031 7.80457 13.9239H7.79767ZM36.4743 23.7522C34.9272 25.2578 33.1384 26.3284 31.4186 27.0881C32.9864 24.3047 34.3747 20.1469 35.0032 13.9239H40.8324C40.4802 18.5031 38.6844 21.6042 36.4812 23.7522H36.4743Z" fill="#F79B46"/>
</g>
<defs>
<clipPath id="clip0_50_194">
<rect width="39.7826" height="35.3623" fill="white" transform="translate(4.42029 6.18842)"/>
</clipPath>
</defs>
</svg>
