<!-- <svg width="48" height="48" viewBox="0 0 48 48" fill="none" xmlns="http://www.w3.org/2000/svg">
<rect width="47.9191" height="47.9191" rx="8.84058" fill="6F8E88"/>
<path d="M17.2391 11.9348C17.2391 10.1763 17.9376 8.48984 19.1811 7.24639C20.4245 6.00294 22.111 5.30438 23.8695 5.30438C25.628 5.30438 27.3145 6.00294 28.5579 7.24639C29.8014 8.48984 30.4999 10.1763 30.4999 11.9348C30.4999 13.6933 29.8014 15.3798 28.5579 16.6232C27.3145 17.8667 25.628 18.5653 23.8695 18.5653C22.111 18.5653 20.4245 17.8667 19.1811 16.6232C17.9376 15.3798 17.2391 13.6933 17.2391 11.9348ZM22.7644 22.433V40.6667L19.4216 38.9953C17.9781 38.277 16.4172 37.8211 14.8079 37.6623L8.17748 36.9992C7.05169 36.8818 6.18835 35.9356 6.18835 34.796V20.7754C6.18835 19.5529 7.17601 18.5653 8.3985 18.5653H10.4912C14.8839 18.5653 19.166 19.919 22.7644 22.433ZM24.9746 40.6667V22.433C28.573 19.919 32.8551 18.5653 37.2478 18.5653H39.3405C40.563 18.5653 41.5507 19.5529 41.5507 20.7754V34.796C41.5507 35.9287 40.6873 36.8818 39.5615 36.9923L32.9311 37.6554C31.3288 37.8142 29.7609 38.2701 28.3174 38.9884L24.9746 40.6667Z" fill="#D3E2D6"/>
</svg> -->

<svg width="48" height="48" viewBox="0 0 48 48" fill="none" xmlns="http://www.w3.org/2000/svg">
<rect width="47.9191" height="47.9191" rx="8.84058" fill="#6F8E88"/>
<path d="M17.2391 11.9348C17.2391 10.1763 17.9376 8.48984 19.1811 7.24639C20.4245 6.00294 22.111 5.30438 23.8695 5.30438C25.628 5.30438 27.3145 6.00294 28.5579 7.24639C29.8014 8.48984 30.4999 10.1763 30.4999 11.9348C30.4999 13.6933 29.8014 15.3798 28.5579 16.6232C27.3145 17.8667 25.628 18.5653 23.8695 18.5653C22.111 18.5653 20.4245 17.8667 19.1811 16.6232C17.9376 15.3798 17.2391 13.6933 17.2391 11.9348ZM22.7644 22.433V40.6667L19.4216 38.9953C17.9781 38.277 16.4172 37.8211 14.8079 37.6623L8.17748 36.9992C7.05169 36.8818 6.18835 35.9356 6.18835 34.796V20.7754C6.18835 19.5529 7.17601 18.5653 8.3985 18.5653H10.4912C14.8839 18.5653 19.166 19.919 22.7644 22.433ZM24.9746 40.6667V22.433C28.573 19.919 32.8551 18.5653 37.2478 18.5653H39.3405C40.563 18.5653 41.5507 19.5529 41.5507 20.7754V34.796C41.5507 35.9287 40.6873 36.8818 39.5615 36.9923L32.9311 37.6554C31.3288 37.8142 29.7609 38.2701 28.3174 38.9884L24.9746 40.6667Z" fill="#D3E2D6"/>
</svg>
