<svg width="48" height="48" viewBox="0 0 48 48" fill="none" xmlns="http://www.w3.org/2000/svg">
<rect width="47.9191" height="47.9191" rx="8.84058" fill="#D3E2D6"/>
<g clip-path="url(#clip0_50_187)">
<path d="M30.4999 28.2899C36.6055 28.2899 41.5507 23.3447 41.5507 17.2391C41.5507 16.1824 41.3987 15.1602 41.1225 14.1864C40.9083 13.4405 39.9898 13.2747 39.4441 13.8203L34.1398 19.1247C33.9326 19.3319 33.6494 19.4493 33.3593 19.4493H29.3949C28.7871 19.4493 28.2898 18.952 28.2898 18.3442V14.3798C28.2898 14.0897 28.4072 13.8065 28.6144 13.5993L33.9188 8.29496C34.4644 7.74933 34.2917 6.83074 33.5527 6.61663C32.5789 6.34036 31.5567 6.18842 30.4999 6.18842C24.3944 6.18842 19.4492 11.1336 19.4492 17.2391C19.4492 18.5583 19.6841 19.8292 20.1054 21.0033L7.56279 33.5459C6.68564 34.423 6.18835 35.6179 6.18835 36.8611C6.18835 39.4511 8.28799 41.5507 10.878 41.5507C12.1212 41.5507 13.3161 41.0534 14.1932 40.1763L26.7358 27.6337C27.9099 28.0619 29.1808 28.2899 30.4999 28.2899ZM11.7137 34.3678C12.1533 34.3678 12.575 34.5424 12.8858 34.8533C13.1967 35.1641 13.3713 35.5857 13.3713 36.0254C13.3713 36.465 13.1967 36.8866 12.8858 37.1975C12.575 37.5083 12.1533 37.683 11.7137 37.683C11.2741 37.683 10.8525 37.5083 10.5416 37.1975C10.2307 36.8866 10.0561 36.465 10.0561 36.0254C10.0561 35.5857 10.2307 35.1641 10.5416 34.8533C10.8525 34.5424 11.2741 34.3678 11.7137 34.3678Z" fill="#6F8E88"/>
</g>
<defs>
<clipPath id="clip0_50_187">
<rect width="35.3623" height="35.3623" fill="white" transform="translate(6.18835 6.18842)"/>
</clipPath>
</defs>
</svg>
