<svg width="49" height="48" viewBox="0 0 49 48" fill="none" xmlns="http://www.w3.org/2000/svg">
<rect x="0.572754" y="0.0808716" width="47.9191" height="47.9191" rx="8.84058" fill="#D3E2D6"/>
<g clip-path="url(#clip0_50_183)">
<path d="M30.8732 20.6871L24.3715 27.1888L28.684 31.5012C29.2049 32.0222 29.4159 32.7805 29.2379 33.4992C29.0599 34.218 28.5257 34.7916 27.8202 35.0092L10.9396 40.2844C10.1879 40.5152 9.37023 40.3174 8.81633 39.7635C8.26244 39.2096 8.05802 38.3853 8.29541 37.6402L13.5706 20.7596C13.7882 20.0541 14.3619 19.5134 15.0806 19.3419C15.7994 19.1705 16.5577 19.3749 17.0786 19.8958L21.3845 24.2017L27.8861 17.7C26.9432 16.7373 26.9498 15.1943 27.9059 14.2382L34.1966 7.94752C35.9704 6.17374 38.8453 6.17374 40.6257 7.94752C42.4061 9.7213 42.3995 12.5963 40.6257 14.3767L34.335 20.6673C33.3789 21.6234 31.8359 21.63 30.8732 20.6871Z" fill="#6F8E88"/>
</g>
<defs>
<clipPath id="clip0_50_183">
<rect width="33.7612" height="33.7612" fill="white" transform="translate(8.19629 6.6153)"/>
</clipPath>
</defs>
</svg>
