<svg width="1440" height="905" viewBox="0 0 1440 905" fill="none" xmlns="http://www.w3.org/2000/svg">
<rect x="-1.5" y="-0.5" width="90" height="90" stroke="#457EF7"/>
<rect x="88.5" y="-0.5" width="91" height="90" stroke="#457EF7"/>
<rect x="-1.5" y="89.5" width="90" height="91" stroke="#457EF7"/>
<rect x="88.5" y="89.5" width="91" height="91" stroke="#457EF7"/>
<rect x="179.5" y="-0.5" width="91" height="90" stroke="#457EF7"/>
<rect x="270.5" y="-0.5" width="90" height="90" stroke="#457EF7"/>
<rect x="179.5" y="89.5" width="91" height="91" stroke="#457EF7"/>
<rect x="270.5" y="89.5" width="90" height="91" stroke="#457EF7"/>
<rect x="-1.5" y="180.5" width="90" height="91" stroke="#457EF7"/>
<rect x="88.5" y="180.5" width="91" height="91" stroke="#457EF7"/>
<rect x="-1.5" y="271.5" width="90" height="90" stroke="#457EF7"/>
<rect x="88.5" y="271.5" width="91" height="90" stroke="#457EF7"/>
<rect x="179.5" y="180.5" width="91" height="91" stroke="#457EF7"/>
<rect x="270.5" y="180.5" width="90" height="91" stroke="#457EF7"/>
<rect x="179.5" y="271.5" width="91" height="90" stroke="#457EF7"/>
<rect x="270.5" y="271.5" width="90" height="90" stroke="#457EF7"/>
<rect x="360.5" y="-0.5" width="90" height="90" stroke="#457EF7"/>
<rect x="450.5" y="-0.5" width="90" height="90" stroke="#457EF7"/>
<rect x="360.5" y="89.5" width="90" height="91" stroke="#457EF7"/>
<rect x="450.5" y="89.5" width="90" height="91" stroke="#457EF7"/>
<rect x="540.5" y="-0.5" width="91" height="90" stroke="#457EF7"/>
<rect x="631.5" y="-0.5" width="90" height="90" stroke="#457EF7"/>
<rect x="540.5" y="89.5" width="91" height="91" stroke="#457EF7"/>
<rect x="631.5" y="89.5" width="90" height="91" stroke="#457EF7"/>
<rect x="360.5" y="180.5" width="90" height="91" stroke="#457EF7"/>
<rect x="450.5" y="180.5" width="90" height="91" stroke="#457EF7"/>
<rect x="360.5" y="271.5" width="90" height="90" stroke="#457EF7"/>
<rect x="450.5" y="271.5" width="90" height="90" stroke="#457EF7"/>
<rect x="540.5" y="180.5" width="91" height="91" stroke="#457EF7"/>
<rect x="631.5" y="180.5" width="90" height="91" stroke="#457EF7"/>
<rect x="540.5" y="271.5" width="91" height="90" stroke="#457EF7"/>
<rect x="631.5" y="271.5" width="90" height="90" stroke="#457EF7"/>
<rect x="721.5" y="-0.5" width="90" height="90" stroke="#457EF7"/>
<rect x="811.5" y="-0.5" width="90" height="90" stroke="#457EF7"/>
<rect x="721.5" y="89.5" width="90" height="91" stroke="#457EF7"/>
<rect x="811.5" y="89.5" width="90" height="91" stroke="#457EF7"/>
<rect x="901.5" y="-0.5" width="91" height="90" stroke="#457EF7"/>
<rect x="992.5" y="-0.5" width="90" height="90" stroke="#457EF7"/>
<rect x="901.5" y="89.5" width="91" height="91" stroke="#457EF7"/>
<rect x="992.5" y="89.5" width="90" height="91" stroke="#457EF7"/>
<rect x="721.5" y="180.5" width="90" height="91" stroke="#457EF7"/>
<rect x="811.5" y="180.5" width="90" height="91" stroke="#457EF7"/>
<rect x="721.5" y="271.5" width="90" height="90" stroke="#457EF7"/>
<rect x="811.5" y="271.5" width="90" height="90" stroke="#457EF7"/>
<rect x="901.5" y="180.5" width="91" height="91" stroke="#457EF7"/>
<rect x="992.5" y="180.5" width="90" height="91" stroke="#457EF7"/>
<rect x="901.5" y="271.5" width="91" height="90" stroke="#457EF7"/>
<rect x="992.5" y="271.5" width="90" height="90" stroke="#457EF7"/>
<rect x="1082.5" y="-0.5" width="90" height="90" stroke="#457EF7"/>
<rect x="1172.5" y="-0.5" width="90" height="90" stroke="#457EF7"/>
<rect x="1082.5" y="89.5" width="90" height="91" stroke="#457EF7"/>
<rect x="1172.5" y="89.5" width="90" height="91" stroke="#457EF7"/>
<rect x="1262.5" y="-0.5" width="91" height="90" stroke="#457EF7"/>
<rect x="1353.5" y="-0.5" width="90" height="90" stroke="#457EF7"/>
<rect x="1262.5" y="89.5" width="91" height="91" stroke="#457EF7"/>
<rect x="1353.5" y="89.5" width="90" height="91" stroke="#457EF7"/>
<rect x="1082.5" y="180.5" width="90" height="91" stroke="#457EF7"/>
<rect x="1172.5" y="180.5" width="90" height="91" stroke="#457EF7"/>
<rect x="1082.5" y="271.5" width="90" height="90" stroke="#457EF7"/>
<rect x="1172.5" y="271.5" width="90" height="90" stroke="#457EF7"/>
<rect x="1262.5" y="180.5" width="91" height="91" stroke="#457EF7"/>
<rect x="1353.5" y="180.5" width="90" height="91" stroke="#457EF7"/>
<rect x="1262.5" y="271.5" width="91" height="90" stroke="#457EF7"/>
<rect x="1353.5" y="271.5" width="90" height="90" stroke="#457EF7"/>
<rect x="-1.5" y="361.5" width="90" height="90" stroke="#457EF7"/>
<rect x="88.5" y="361.5" width="91" height="90" stroke="#457EF7"/>
<rect x="-1.5" y="451.5" width="90" height="91" stroke="#457EF7"/>
<rect x="88.5" y="451.5" width="91" height="91" stroke="#457EF7"/>
<rect x="179.5" y="361.5" width="91" height="90" stroke="#457EF7"/>
<rect x="270.5" y="361.5" width="90" height="90" stroke="#457EF7"/>
<rect x="179.5" y="451.5" width="91" height="91" stroke="#457EF7"/>
<rect x="270.5" y="451.5" width="90" height="91" stroke="#457EF7"/>
<rect x="-1.5" y="542.5" width="90" height="91" stroke="#457EF7"/>
<rect x="88.5" y="542.5" width="91" height="91" stroke="#457EF7"/>
<rect x="-1.5" y="633.5" width="90" height="90" stroke="#457EF7"/>
<rect x="88.5" y="633.5" width="91" height="90" stroke="#457EF7"/>
<rect x="179.5" y="542.5" width="91" height="91" stroke="#457EF7"/>
<rect x="270.5" y="542.5" width="90" height="91" stroke="#457EF7"/>
<rect x="179.5" y="633.5" width="91" height="90" stroke="#457EF7"/>
<rect x="270.5" y="633.5" width="90" height="90" stroke="#457EF7"/>
<rect x="360.5" y="361.5" width="90" height="90" stroke="#457EF7"/>
<rect x="450.5" y="361.5" width="90" height="90" stroke="#457EF7"/>
<rect x="360.5" y="451.5" width="90" height="91" stroke="#457EF7"/>
<rect x="450.5" y="451.5" width="90" height="91" stroke="#457EF7"/>
<rect x="540.5" y="361.5" width="91" height="90" stroke="#457EF7"/>
<rect x="631.5" y="361.5" width="90" height="90" stroke="#457EF7"/>
<rect x="540.5" y="451.5" width="91" height="91" stroke="#457EF7"/>
<rect x="631.5" y="451.5" width="90" height="91" stroke="#457EF7"/>
<rect x="360.5" y="542.5" width="90" height="91" stroke="#457EF7"/>
<rect x="450.5" y="542.5" width="90" height="91" stroke="#457EF7"/>
<rect x="360.5" y="633.5" width="90" height="90" stroke="#457EF7"/>
<rect x="450.5" y="633.5" width="90" height="90" stroke="#457EF7"/>
<rect x="540.5" y="542.5" width="91" height="91" stroke="#457EF7"/>
<rect x="631.5" y="542.5" width="90" height="91" stroke="#457EF7"/>
<rect x="540.5" y="633.5" width="91" height="90" stroke="#457EF7"/>
<rect x="631.5" y="633.5" width="90" height="90" stroke="#457EF7"/>
<rect x="721.5" y="361.5" width="90" height="90" stroke="#457EF7"/>
<rect x="811.5" y="361.5" width="90" height="90" stroke="#457EF7"/>
<rect x="721.5" y="451.5" width="90" height="91" stroke="#457EF7"/>
<rect x="811.5" y="451.5" width="90" height="91" stroke="#457EF7"/>
<rect x="901.5" y="361.5" width="91" height="90" stroke="#457EF7"/>
<rect x="992.5" y="361.5" width="90" height="90" stroke="#457EF7"/>
<rect x="901.5" y="451.5" width="91" height="91" stroke="#457EF7"/>
<rect x="992.5" y="451.5" width="90" height="91" stroke="#457EF7"/>
<rect x="721.5" y="542.5" width="90" height="91" stroke="#457EF7"/>
<rect x="811.5" y="542.5" width="90" height="91" stroke="#457EF7"/>
<rect x="721.5" y="633.5" width="90" height="90" stroke="#457EF7"/>
<rect x="811.5" y="633.5" width="90" height="90" stroke="#457EF7"/>
<rect x="901.5" y="542.5" width="91" height="91" stroke="#457EF7"/>
<rect x="992.5" y="542.5" width="90" height="91" stroke="#457EF7"/>
<rect x="901.5" y="633.5" width="91" height="90" stroke="#457EF7"/>
<rect x="992.5" y="633.5" width="90" height="90" stroke="#457EF7"/>
<rect x="1082.5" y="361.5" width="90" height="90" stroke="#457EF7"/>
<rect x="1172.5" y="361.5" width="90" height="90" stroke="#457EF7"/>
<rect x="1082.5" y="451.5" width="90" height="91" stroke="#457EF7"/>
<rect x="1172.5" y="451.5" width="90" height="91" stroke="#457EF7"/>
<rect x="1262.5" y="361.5" width="91" height="90" stroke="#457EF7"/>
<rect x="1353.5" y="361.5" width="90" height="90" stroke="#457EF7"/>
<rect x="1262.5" y="451.5" width="91" height="91" stroke="#457EF7"/>
<rect x="1353.5" y="451.5" width="90" height="91" stroke="#457EF7"/>
<rect x="1082.5" y="542.5" width="90" height="91" stroke="#457EF7"/>
<rect x="1172.5" y="542.5" width="90" height="91" stroke="#457EF7"/>
<rect x="1082.5" y="633.5" width="90" height="90" stroke="#457EF7"/>
<rect x="1172.5" y="633.5" width="90" height="90" stroke="#457EF7"/>
<rect x="1262.5" y="542.5" width="91" height="91" stroke="#457EF7"/>
<rect x="1353.5" y="542.5" width="90" height="91" stroke="#457EF7"/>
<rect x="1262.5" y="633.5" width="91" height="90" stroke="#457EF7"/>
<rect x="1353.5" y="633.5" width="90" height="90" stroke="#457EF7"/>
<rect x="-1.5" y="723.5" width="90" height="91" stroke="#457EF7"/>
<rect x="88.5" y="723.5" width="91" height="91" stroke="#457EF7"/>
<rect x="-1.5" y="814.5" width="90" height="90" stroke="#457EF7"/>
<rect x="88.5" y="814.5" width="91" height="90" stroke="#457EF7"/>
<rect x="179.5" y="723.5" width="91" height="91" stroke="#457EF7"/>
<rect x="270.5" y="723.5" width="90" height="91" stroke="#457EF7"/>
<rect x="179.5" y="814.5" width="91" height="90" stroke="#457EF7"/>
<rect x="270.5" y="814.5" width="90" height="90" stroke="#457EF7"/>
<rect x="360.5" y="723.5" width="90" height="91" stroke="#457EF7"/>
<rect x="450.5" y="723.5" width="90" height="91" stroke="#457EF7"/>
<rect x="360.5" y="814.5" width="90" height="90" stroke="#457EF7"/>
<rect x="450.5" y="814.5" width="90" height="90" stroke="#457EF7"/>
<rect x="540.5" y="723.5" width="91" height="91" stroke="#457EF7"/>
<rect x="631.5" y="723.5" width="90" height="91" stroke="#457EF7"/>
<rect x="540.5" y="814.5" width="91" height="90" stroke="#457EF7"/>
<rect x="631.5" y="814.5" width="90" height="90" stroke="#457EF7"/>
<rect x="721.5" y="723.5" width="90" height="91" stroke="#457EF7"/>
<rect x="811.5" y="723.5" width="90" height="91" stroke="#457EF7"/>
<rect x="721.5" y="814.5" width="90" height="90" stroke="#457EF7"/>
<rect x="811.5" y="814.5" width="90" height="90" stroke="#457EF7"/>
<rect x="901.5" y="723.5" width="91" height="91" stroke="#457EF7"/>
<rect x="992.5" y="723.5" width="90" height="91" stroke="#457EF7"/>
<rect x="901.5" y="814.5" width="91" height="90" stroke="#457EF7"/>
<rect x="992.5" y="814.5" width="90" height="90" stroke="#457EF7"/>
<rect x="1082.5" y="723.5" width="90" height="91" stroke="#457EF7"/>
<rect x="1172.5" y="723.5" width="90" height="91" stroke="#457EF7"/>
<rect x="1082.5" y="814.5" width="90" height="90" stroke="#457EF7"/>
<rect x="1172.5" y="814.5" width="90" height="90" stroke="#457EF7"/>
<rect x="1262.5" y="723.5" width="91" height="91" stroke="#457EF7"/>
<rect x="1353.5" y="723.5" width="90" height="91" stroke="#457EF7"/>
<rect x="1262.5" y="814.5" width="91" height="90" stroke="#457EF7"/>
<rect x="1353.5" y="814.5" width="90" height="90" stroke="#457EF7"/>
</svg>
